# xmcd
#
# Track frame offsets: 
#        150
#        23962
#        40500
#        66175
#        68750
#
# Disc length: 1155 seconds
#
# Revision: 5
# Processed by: cddbd v1.5.2PL0 Copyright (c) Steve Scherf et al.
# Submitted via: ExactAudioCopy v0.99pb4
#
DISCID=3a048105
DTITLE=2 Brothers On The 4th Floor - Can't Help Myself
DYEAR=1990
DGENRE=Club
TTITLE0=Can't Help Myself (Extended Radio Mix)
TTITLE1=4th Floor Theme
TTITLE2=Can't Help Myself (Club Mix)
TTITLE3=Can't Help Myself (Acappella)
TTITLE4=Can't Help Myself (Radio Edit)
EXTD=ba R.F.
EXTT0=
EXTT1=
EXTT2=
EXTT3=
EXTT4=
PLAYORDER=
